<svg xmlns="http://www.w3.org/2000/svg" viewBox="0 0 907.75 86.43" xml:space="preserve">
  <style>
    .purple{fill:#68278F;}
    .gold{fill:#E8BA00;}
  </style>

  <!-- Bloco roxo (esquerda) -->
  <g transform="translate(68 274)">
    <g transform="translate(0.609679 57.940721)">
      <path class="purple" d="M-63.4-322.44h16.1v27.31c0,1.96-0.28,3.72-0.83,5.29c-0.56,1.56-1.09,2.95-1.6,4.19l3.71,0.98c0.9-2.67,2.77-4.75,5.6-6.25c2.83-1.5,6.07-2.25,9.71-2.25c2.47,0,4.84,0.45,7.12,1.33c2.28,0.88,4.29,2.24,6.04,4.1c1.76,1.85,3.18,4.25,4.25,7.21c1.08,2.96,1.62,6.55,1.62,10.77c0,4.17-0.54,7.75-1.62,10.75c-1.07,2.99-2.49,5.41-4.25,7.27c-1.75,1.85-3.77,3.22-6.04,4.1c-2.28,0.88-4.66,1.31-7.12,1.31c-3.64,0-6.88-0.75-9.71-2.25c-2.83-1.5-4.7-3.58-5.6-6.25l-3.71,0.98c0.51,0.72,1.05,1.75,1.6,3.08c0.55,1.33,0.83,2.49,0.83,3.46h-16.1V-322.44z M-47.3-262.32c0.65,0.52,1.76,1.11,3.31,1.79c1.57,0.68,3.71,1.02,6.44,1.02c1.38,0,2.65-0.15,3.81-0.44c1.17-0.29,2.19-0.81,3.06-1.56c0.89-0.75,1.59-1.79,2.1-3.12c0.53-1.33,0.79-3.04,0.79-5.12c0-2.07-0.27-3.77-0.79-5.1c-0.52-1.34-1.22-2.39-2.1-3.12c-0.88-0.75-1.9-1.27-3.06-1.56c-1.17-0.29-2.44-0.44-3.81-0.44c-2.72,0-4.87,0.34-6.44,1.02c-1.56,0.68-2.66,1.28-3.31,1.79V-262.32z"/>
    </g>

    <g transform="translate(44.89897 57.940721)">
      <path class="purple" d="M-50.1-292.19h16.1v21.48c0,2.33,0.24,4.22,0.73,5.65c0.48,1.43,1.15,2.57,2,3.42c0.84,0.85,1.79,1.42,2.83,1.71c1.04,0.29,2.11,0.44,3.21,0.44c2.28,0,4.15-0.34,5.6-1.02c1.47-0.68,2.53-1.28,3.19-1.79v-29.88h16.1v44.9h-16.1c0-0.97,0.28-2.16,0.83-3.56c0.55-1.4,1.09-2.72,1.6-3.96l-3.71-0.98c-0.46,1.57-1.16,2.95-2.1,4.12c-0.95,1.17-2.07,2.16-3.38,2.98c-1.29,0.81-2.7,1.4-4.23,1.79c-1.53,0.39-3.08,0.58-4.65,0.58c-2.21,0-4.39-0.44-6.54-1.31c-2.14-0.89-4.06-2.3-5.75-4.25c-1.7-1.96-3.08-4.48-4.15-7.56c-1.07-3.09-1.6-6.85-1.6-11.27V-292.19z"/>
    </g>

    <g transform="translate(87.724158 57.940721)">
      <path class="purple" d="M-17.28-277.55c0,0.97,0.81,1.6,2.44,1.9c1.62,0.29,3.67,0.52,6.15,0.69c2.47,0.17,5.14,0.36,8,0.58c2.86,0.22,5.53,0.79,8,1.71c2.47,0.91,4.52,2.27,6.15,4.1c1.64,1.82,2.46,4.35,2.46,7.6c0,2.08-0.56,4.02-1.67,5.81c-1.11,1.79-2.74,3.34-4.9,4.65c-2.14,1.29-4.79,2.31-7.94,3.06c-3.16,0.75-6.79,1.12-10.9,1.12c-4.1,0-7.72-0.44-10.88-1.31c-3.16-0.89-5.81-2.05-7.96-3.48c-2.14-1.43-3.77-3.09-4.88-4.98c-1.11-1.89-1.67-3.84-1.67-5.85h16.1c0,0.78,0.71,1.54,2.15,2.29c1.44,0.75,3.82,1.13,7.13,1.13c3.32,0,5.69-0.32,7.12-0.96c1.44-0.65,2.17-1.47,2.17-2.46c0-0.97-0.82-1.6-2.46-1.9c-1.62-0.29-3.68-0.52-6.15-0.69c-2.47-0.17-5.14-0.36-8-0.58c-2.86-0.22-5.53-0.79-8-1.71c-2.47-0.92-4.52-2.28-6.15-4.1c-1.62-1.82-2.44-4.35-2.44-7.6c0-2.08,0.53-4.02,1.6-5.81c1.07-1.79,2.62-3.33,4.67-4.62c2.05-1.3,4.56-2.33,7.52-3.08c2.97-0.75,6.34-1.12,10.1-1.12c3.72,0,7.06,0.39,10.02,1.17c2.96,0.78,5.46,1.82,7.5,3.12c2.05,1.31,3.63,2.85,4.73,4.65c1.11,1.79,1.67,3.7,1.67,5.71h-16.1c0-1.62-2.6-2.44-7.81-2.44c-2.53,0-4.46,0.33-5.79,0.98C-16.61-279.35-17.28-278.53-17.28-277.55z"/>
    </g>

    <g transform="translate(131.647423 57.940721)">
      <path class="purple" d="M5.65-246.32c-8.53,0-14.97-2.08-19.33-6.25c-4.36-4.17-6.54-9.9-6.54-17.19c0-7.34,2.18-13.08,6.54-17.21c4.36-4.14,10.8-6.21,19.33-6.21c4.22,0,7.93,0.51,11.13,1.52c3.19,1,5.9,2.4,8.1,4.19c2.21,1.79,3.86,3.9,4.96,6.31c1.11,2.41,1.67,4.97,1.67,7.69h-16c0-1.68-0.77-3.19-2.29-4.52c-1.53-1.33-4.05-2-7.56-2c-3.52,0-6.02,0.95-7.52,2.83c-1.5,1.88-2.25,4.34-2.25,7.4c0,3.07,0.75,5.55,2.25,7.44c1.5,1.88,4.01,2.81,7.52,2.81c3.51,0,6.03-0.67,7.56-2c1.53-1.33,2.29-2.84,2.29-4.54h16c0,2.74-0.56,5.31-1.67,7.73c-1.1,2.41-2.75,4.5-4.96,6.29s-4.91,3.2-8.1,4.21C13.58-246.82,9.87-246.32,5.65-246.32z"/>
    </g>

    <g transform="translate(176.30276 57.940721)">
      <path class="purple" d="M28.64-265.07h-9.77c-3.06,0-5.18,0.22-6.35,0.65c-1.17,0.42-1.75,1.28-1.75,2.58c0,1.31,0.68,2.19,2.04,2.65c1.38,0.45,3.07,0.67,5.08,0.67c4.04,0,6.84-0.44,8.4-1.31c1.57-0.88,2.35-2.06,2.35-3.56V-265.07z M27.08-255.8c-0.92,3.12-2.78,5.49-5.58,7.08c-2.79,1.59-5.95,2.4-9.46,2.4c-2.02,0-4.06-0.27-6.15-0.79c-2.08-0.51-3.96-1.35-5.63-2.52c-1.66-1.18-3-2.69-4.04-4.54c-1.04-1.86-1.56-4.09-1.56-6.69c0-2.67,0.53-4.9,1.6-6.69c1.08-1.79,2.53-3.22,4.35-4.29c1.82-1.08,3.93-1.86,6.33-2.35c2.42-0.48,4.96-0.73,7.63-0.73h13.77v-0.48c0-1.96-0.49-3.53-1.48-4.73c-0.97-1.21-2.93-1.81-5.85-1.81c-2.92,0-4.92,0.38-6,1.12c-1.07,0.75-1.7,1.68-1.9,2.77h-16.1c0-2.14,0.5-4.13,1.5-5.98c1.01-1.86,2.49-3.46,4.44-4.79c1.96-1.34,4.4-2.41,7.33-3.19c2.93-0.78,6.31-1.17,10.15-1.17c3.51,0,6.73,0.41,9.67,1.23c2.93,0.81,5.46,1.97,7.6,3.5c2.15,1.53,3.81,3.42,4.98,5.67c1.18,2.25,1.77,4.81,1.77,7.67v27.81h-16.1c0-0.97,0.27-2.16,0.81-3.56c0.55-1.4,1.09-2.72,1.62-3.96L27.08-255.8z"/>
    </g>
  </g>

  <!-- Bloco amarelo (meio) -->
  <g transform="translate(303 276)">
    <g transform="translate(0.803424 56.549265)">
      <path class="gold" d="M15-291.99h15.6v44.9H15V-291.99z M15-312.1h15.6v15.6H15V-312.1z"/>
    </g>

    <g transform="translate(19.103836 56.549265)">
      <path class="gold" d="M69.89-247.1h-16.1v-21.48c0-2.33-0.24-4.21-0.73-5.65c-0.49-1.43-1.14-2.57-1.96-3.42c-0.81-0.84-1.7-1.42-2.69-1.71c-0.97-0.29-1.95-0.44-2.92-0.44c-2.02,0-3.74,0.34-5.17,1.02c-1.43,0.68-2.47,1.28-3.12,1.79v29.88H21.1v-44.9h16.1c0,0.97-0.28,2.16-0.83,3.56c-0.56,1.41-1.09,2.72-1.6,3.96l3.71,0.96c0.46-1.55,1.15-2.92,2.08-4.08c0.94-1.18,2.05-2.17,3.31-2.98c1.28-0.82,2.65-1.42,4.1-1.81c1.47-0.39,2.92-0.58,4.35-0.58c2.08,0,4.17,0.45,6.25,1.33c2.08,0.88,3.96,2.29,5.65,4.25c1.69,1.95,3.06,4.47,4.1,7.56c1.04,3.08,1.56,6.83,1.56,11.25V-247.1z"/>
    </g>

    <g transform="translate(61.560791 56.549265)">
      <path class="gold" d="M39.44-306.82c0-5.14,1.8-8.99,5.42-11.56c3.61-2.57,9.35-3.85,17.23-3.85h6.35v13.17h-4.4c-1.77,0-3.33,0.14-4.69,0.4c-1.36,0.27-2.5,0.72-3.42,1.38c-0.92,0.64-1.62,1.52-2.1,2.62c-0.49,1.1-0.73,2.49-0.73,4.19c0,3.39,0.94,5.66,2.83,6.79c1.89,1.14,4.59,1.71,8.1,1.71h8.29v13.17H59.46v31.73h-16.1v-31.73h-8.6v-13.17h3.12c1.62,0,3.09,0.17,4.4,0.5c1.3,0.32,2.48,0.68,3.52,1.06l0.98-3.71c-2.08-0.97-3.83-2.46-5.23-4.48C40.13-300.64,39.44-303.38,39.44-306.82z"/>
    </g>

    <g transform="translate(95.599556 56.549265)">
      <path class="gold" d="M46.6-322.24h15.6v75.15H46.6V-322.24z"/>
    </g>

    <g transform="translate(113.899968 56.549265)">
      <path class="gold" d="M51.24-291.99h16.1v21.48c0,2.33,0.24,4.22,0.73,5.65c0.48,1.43,1.15,2.57,2,3.42c0.84,0.85,1.79,1.42,2.83,1.71c1.04,0.29,2.11,0.44,3.21,0.44c2.28,0,4.15-0.34,5.6-1.02c1.47-0.68,2.53-1.28,3.19-1.79v-29.88h16.1v44.9H84.9c0-0.97,0.28-2.16,0.83-3.56c0.55-1.4,1.09-2.72,1.6-3.96l-3.71-0.98c-0.46,1.57-1.16,2.95-2.1,4.12c-0.95,1.17-2.07,2.16-3.38,2.98c-1.29,0.81-2.7,1.4-4.23,1.79c-1.53,0.39-3.08,0.58-4.65,0.58c-2.21,0-4.39-0.44-6.54-1.31c-2.14-0.89-4.06-2.3-5.75-4.25c-1.7-1.96-3.08-4.48-4.15-7.56c-1.07-3.09-1.6-6.85-1.6-11.27V-291.99z"/>
    </g>

    <g transform="translate(156.722928 56.549265)">
      <path class="gold" d="M92.35-246.12c-8.53,0-14.97-2.08-19.33-6.25c-4.36-4.17-6.54-9.9-6.54-17.19c0-7.34,2.18-13.08,6.54-17.21c4.36-4.14,10.8-6.21,19.33-6.21c8.53,0,14.96,2.07,19.31,6.21c4.36,4.12,6.54,9.86,6.54,17.21v4.1H82.87c0.46,2.47,1.44,4.28,2.94,5.42c1.5,1.14,3.68,1.71,6.54,1.71c2.73,0,4.78-0.32,6.15-0.96c1.36-0.65,2.21-1.47,2.54-2.46h16.69c-0.46,2.16-1.24,4.19-2.35,6.1c-1.1,1.92-2.66,3.58-4.69,4.98c-2.02,1.41-4.52,2.52-7.52,3.33C100.17-246.52,96.56-246.12,92.35-246.12z M101.62-274.22c-0.52-2.28-1.51-3.94-2.98-4.98c-1.46-1.04-3.56-1.56-6.29-1.56c-2.74,0-4.84,0.52-6.31,1.56c-1.46,1.04-2.45,2.7-2.96,4.98H101.62z"/>
    </g>

    <g transform="translate(201.375944 56.549265)">
      <path class="gold" d="M130.65-247.1h-16.1v-21.48c0-2.33-0.24-4.21-0.73-5.65c-0.49-1.43-1.14-2.57-1.96-3.42c-0.81-0.84-1.7-1.42-2.69-1.71c-0.97-0.29-1.95-0.44-2.92-0.44c-2.02,0-3.74,0.34-5.17,1.02c-1.43,0.68-2.47,1.28-3.12,1.79v29.88h-16.1v-44.9h16.1c0,0.97-0.28,2.16-0.83, 3.56c-0.56,1.41-1.09,2.72-1.6,3.96l3.71,0.96c0.46-1.55,1.15-2.92,2.08-4.08c0.94-1.18,2.05-2.17,3.31-2.98c1.28-0.82,2.65-1.42,4.1-1.81c1.47-0.39,2.92-0.58,4.35-0.58c2.08,0,4.17,0.45,6.25,1.33c2.08,0.88,3.96,2.29,5.65,4.25c1.69,1.95,3.06,4.47,4.1,7.56c1.04,3.08,1.56,6.83,1.56,11.25V-247.1z"/>
    </g>

    <g transform="translate(243.832893 56.549265)">
      <path class="gold" d="M121.38-246.12c-8.53,0-14.97-2.08-19.33-6.25c-4.36-4.17-6.54-9.9-6.54-17.19c0-7.34,2.18-13.08,6.54-17.21c4.36-4.14,10.8-6.21,19.33-6.21c4.22,0,7.93,0.51,11.12,1.52c3.19,1,5.9,2.4,8.1,4.19c2.21,1.79,3.86,3.9,4.96,6.31c1.11,2.41,1.67,4.97,1.67,7.69h-16c0-1.68-0.77-3.19-2.29-4.52c-1.53-1.33-4.05-2-7.56-2c-3.52,0-6.02,0.95-7.52,2.83c-1.5,1.88-2.25,4.34-2.25,7.4c0,3.07,0.75,5.55,2.25,7.44c1.5,1.88,4.01,2.81,7.52,2.81c3.51,0,6.03-0.67,7.56-2c1.53-1.33,2.29-2.84,2.29-4.54h16c0,2.74-0.56,5.31-1.67,7.73c-1.1,2.41-2.75,4.5-4.96,6.29c-2.21,1.79-4.91,3.2-8.1,4.21C129.31-246.62,125.6-246.12,121.38-246.12z"/>
    </g>

    <g transform="translate(288.485908 56.549265)">
      <path class="gold" d="M136.27-246.12c-8.53,0-14.97-2.08-19.33-6.25c-4.36-4.17-6.54-9.9-6.54-17.19c0-7.34,2.18-13.08,6.54-17.21c4.36-4.14,10.8-6.21,19.33-6.21c8.53,0,14.96,2.07,19.31,6.21c4.36,4.12,6.54,9.86,6.54,17.21v4.1h-35.33c0.46,2.47,1.44,4.28,2.94,5.42c1.5,1.14,3.68,1.71,6.54,1.71c2.73,0,4.78-0.32,6.15-0.96c1.36-0.65,2.21-1.47,2.54-2.46h16.69c-0.46,2.16-1.24,4.19-2.35,6.1c-1.1,1.92-2.66,3.58-4.69,4.98c-2.02,1.41-4.52,2.52-7.52,3.33C144.09-246.52,140.48-246.12,136.27-246.12z M145.54-274.22c-0.52-2.28-1.51-3.94-2.98-4.98c-1.46-1.04-3.56-1.56-6.29-1.56c-2.74,0-4.84,0.52-6.31,1.56c-1.46,1.04-2.45,2.7-2.96,4.98H145.54z"/>
    </g>

    <g transform="translate(333.138924 56.549265)">
      <path class="gold" d="M129.78-274.32c0-1.96-0.27-3.19-0.79-3.71c-0.52-0.53-1.75-0.79-3.71-0.79v-13.17h4.6c2.21,0,3.73,0.6,4.58,1.81c0.84,1.2,1.27,2.48,1.27,3.85c0,0.58-0.05,1.2-0.15,1.85c-0.1,0.64-0.31,1.42-0.65,2.33l3.71,0.98c0.46-2.21,0.94-4.01,1.46-5.42c0.53-1.4,1.23-2.51,2.1-3.31c0.88-0.82,1.99-1.38,3.35-1.67c1.38-0.29,3.17-0.44,5.4-0.44h7.31v13.17h-7.31c-1.24,0-2.2,0.08-2.9,0.25c-0.68,0.17-1.19,0.47-1.52,0.9c-0.32,0.42-0.52,1-0.58,1.75c-0.06,0.74-0.08,1.72-0.08,2.96v25.88h-16.1V-274.32z"/>
    </g>
  </g>

  <!-- Ícone (direita) -->
  <g transform="translate(669 235)">
    <path class="purple" d="M201.03-231.87c15.69,0.9,28.14,13.35,28.86,28.86v7.94c-0.72,15.34-13.17,27.78-28.5,27.78h-22.73c-4.15,4.87-8.66,9.2-13.89,12.81l-3.43,1.98c-1.8,0-2.17-1.08-1.62-2.88c1.26-3.97,1.08-8.12-0.36-11.91l-0.54-1.62c-11-3.61-18.94-14.07-19.12-26.16v-8.12c0-15.33,12.63-27.78,28.86-28.68h32.83H201.03z"/>
    <polygon class="gold" points="184.79,-221.4 189.87,-205.74 206.3,-205.74 193.01,-196.06 198.08,-180.41 184.79,-190.08 171.5,-180.41 176.58,-196.06 163.29,-205.74 179.72,-205.74"/>
  </g>
</svg>